<svg height="512" viewBox="0 0 64 64" width="512" xmlns="http://www.w3.org/2000/svg"><g id="flat"><path d="m61 50h-21l-5-8h26z" fill="#195c85"/><path d="m56 45h2v2h-2z" fill="#87cee9"/><path d="m41 26h-32l-6-6v-6h42v8z" fill="#4f97d5"/><path d="m7 24v12h34v-10h-32z" fill="#195c85"/><path d="m41 26h4v10h-4z" fill="#2d75bb"/><path d="m33 36h12a0 0 0 0 1 0 0v2a6 6 0 0 1 -6 6 6 6 0 0 1 -6-6v-2a0 0 0 0 1 0 0z" fill="#4f97d5"/><path d="m55 31v-3a6 6 0 0 0 -6-6h-4l-4 4h8a2 2 0 0 1 2 2v3a5.819 5.819 0 0 0 6 6h4v-4h-4a2 2 0 0 1 -2-2z" fill="#143441"/><path d="m3 25h4v7h-4z" fill="#143441"/><g fill="#87cee9"><path d="m36 17h6v2h-6z"/><path d="m6 17h2v2h-2z"/><path d="m10 19h2v2h-2z"/><path d="m38 39h2v2h-2z"/></g></g></svg>