<svg id="Capa_1" enable-background="new 0 0 512 512" height="512" viewBox="0 0 512 512" width="512" xmlns="http://www.w3.org/2000/svg"><g><g><path d="m7.5 205.492v101.016c0 22.316 18.091 40.406 40.407 40.406h372.75v-181.829h-372.751c-22.315 0-40.406 18.091-40.406 40.407z" fill="#88f2a9"/></g><g><path d="m276.203 205.492v101.016c0 15.182 5.111 29.186 13.688 40.406h130.765v-181.829h-130.764c-8.578 11.221-13.689 25.225-13.689 40.407z" fill="#80e29e"/></g><g><path d="m464.094 346.915h-121.22c-22.316 0-40.406-18.091-40.406-40.406v-101.017c0-22.316 18.091-40.407 40.406-40.407h121.22c22.316 0 40.406 18.091 40.406 40.407v101.016c0 22.316-18.091 40.407-40.406 40.407z" fill="#d3effd"/></g><g><path d="m464.094 165.085h-32.325c22.316 0 40.407 18.091 40.407 40.407v101.016c0 22.316-18.091 40.406-40.407 40.406h32.325c22.316 0 40.406-18.091 40.406-40.406v-101.016c0-22.316-18.091-40.407-40.406-40.407z" fill="#b2e5fb"/></g><g><circle cx="403.484" cy="256" fill="#88f2a9" r="32.325"/></g><g><path d="m415.145 225.852c1.401 3.618 2.177 7.548 2.177 11.661 0 17.852-14.473 32.325-32.325 32.325-4.113 0-8.042-.776-11.661-2.177 4.679 12.088 16.409 20.664 30.148 20.664 17.853 0 32.325-14.473 32.325-32.325 0-13.74-8.576-25.469-20.664-30.148z" fill="#80e29e"/></g><g><path d="m188.886 213.616c-3.133.977-5.268 3.878-5.268 7.16v70.579c0 4.143 3.357 7.5 7.5 7.5s7.5-3.357 7.5-7.5v-46.521l34.052 49.309c2.257 3.262 5.998 4.656 9.538 3.55 3.621-1.131 5.961-4.554 5.961-8.793l-.661-68.328c-.04-4.118-3.39-7.428-7.498-7.428-.024 0-.05 0-.074 0-4.143.04-7.468 3.431-7.428 7.572l.46 47.461-35.678-51.663c-1.866-2.701-5.268-3.872-8.404-2.898z"/><path d="m113.964 298.751c23.573 0 42.752-19.178 42.752-42.751s-19.179-42.751-42.752-42.751-42.751 19.178-42.751 42.751 19.178 42.751 42.751 42.751zm0-70.502c15.303 0 27.752 12.449 27.752 27.751s-12.449 27.751-27.752 27.751c-15.302 0-27.751-12.449-27.751-27.751s12.449-27.751 27.751-27.751z"/><path d="m204.71 339.41h-156.8c-18.146 0-32.91-14.759-32.91-32.9v-101.02c0-18.142 14.764-32.9 32.91-32.9h18.63c4.143 0 7.5-3.357 7.5-7.5s-3.357-7.5-7.5-7.5h-18.63c-26.418 0-47.91 21.488-47.91 47.9v101.02c0 26.412 21.492 47.9 47.91 47.9h156.8c4.143 0 7.5-3.357 7.5-7.5s-3.357-7.5-7.5-7.5z"/><path d="m464.09 157.59h-42.02c-4.143 0-7.5 3.357-7.5 7.5s3.357 7.5 7.5 7.5h42.02c18.146 0 32.91 14.759 32.91 32.9v101.02c0 18.142-14.764 32.9-32.91 32.9h-121.22c-18.142 0-32.9-14.759-32.9-32.9v-101.02c0-18.142 14.759-32.9 32.9-32.9h44.2c4.143 0 7.5-3.357 7.5-7.5s-3.357-7.5-7.5-7.5h-285.53c-4.143 0-7.5 3.357-7.5 7.5s3.357 7.5 7.5 7.5h206.565c-8.132 8.588-13.136 20.167-13.136 32.9v101.02c0 12.733 5.004 24.312 13.136 32.9h-68.395c-4.143 0-7.5 3.357-7.5 7.5s3.357 7.5 7.5 7.5h224.38c26.418 0 47.91-21.488 47.91-47.9v-101.02c0-26.412-21.492-47.9-47.91-47.9z"/><path d="m363.658 256c0 21.96 17.865 39.825 39.825 39.825s39.826-17.865 39.826-39.825-17.865-39.825-39.825-39.825-39.826 17.865-39.826 39.825zm39.825-24.825c13.688 0 24.825 11.137 24.825 24.825s-11.137 24.825-24.825 24.825-24.825-11.137-24.825-24.825 11.137-24.825 24.825-24.825z"/></g></g></svg>