<svg id="Capa_1" enable-background="new 0 0 512 512" height="512" viewBox="0 0 512 512" width="512" xmlns="http://www.w3.org/2000/svg"><g><g><path d="m464.09 157.59h-37.53c-4.143 0-7.5 3.357-7.5 7.5s3.357 7.5 7.5 7.5h37.53c18.146 0 32.91 14.759 32.91 32.9v101.02c0 18.142-14.764 32.9-32.91 32.9h-119.81c-4.143 0-7.5 3.357-7.5 7.5s3.357 7.5 7.5 7.5h119.81c26.418 0 47.91-21.488 47.91-47.9v-101.02c0-26.412-21.492-47.9-47.91-47.9z"/><path d="m309.276 339.41h-105.381c8.132-8.588 13.136-20.167 13.136-32.9v-101.02c0-12.733-5.004-24.312-13.136-32.9h187.665c4.143 0 7.5-3.357 7.5-7.5s-3.357-7.5-7.5-7.5h-289.38c-4.143 0-7.5 3.357-7.5 7.5s3.357 7.5 7.5 7.5h66.95c18.142 0 32.9 14.759 32.9 32.9v101.02c0 18.142-14.759 32.9-32.9 32.9h-121.22c-18.146 0-32.91-14.759-32.91-32.9v-101.02c0-18.142 14.764-32.9 32.91-32.9h19.27c4.143 0 7.5-3.357 7.5-7.5s-3.357-7.5-7.5-7.5h-19.27c-26.418 0-47.91 21.488-47.91 47.9v101.02c0 26.412 21.492 47.9 47.91 47.9h261.366c4.143 0 7.5-3.357 7.5-7.5s-3.357-7.5-7.5-7.5z"/><path d="m108.517 295.825c21.96 0 39.825-17.865 39.825-39.825s-17.865-39.825-39.825-39.825-39.826 17.865-39.826 39.825 17.866 39.825 39.826 39.825zm0-64.65c13.688 0 24.825 11.137 24.825 24.825s-11.137 24.825-24.825 24.825-24.826-11.137-24.826-24.825 11.137-24.825 24.826-24.825z"/><path d="m386.362 228.403c4.143 0 7.5-3.357 7.5-7.5s-3.357-7.5-7.5-7.5h-28.449c-4.143 0-7.5 3.357-7.5 7.5v70.193c0 4.143 3.357 7.5 7.5 7.5s7.5-3.357 7.5-7.5v-28.262h18.689c4.143 0 7.5-3.357 7.5-7.5s-3.357-7.5-7.5-7.5h-18.689v-19.432h20.949z"/><path d="m458.6 228.403c4.143 0 7.5-3.357 7.5-7.5s-3.357-7.5-7.5-7.5h-28.45c-4.143 0-7.5 3.357-7.5 7.5v70.193c0 4.143 3.357 7.5 7.5 7.5s7.5-3.357 7.5-7.5v-28.262h18.689c4.143 0 7.5-3.357 7.5-7.5s-3.357-7.5-7.5-7.5h-18.689v-19.432h20.95z"/><path d="m280.53 213.145c-23.631 0-42.855 19.225-42.855 42.855s19.225 42.855 42.855 42.855 42.855-19.225 42.855-42.855-19.224-42.855-42.855-42.855zm0 70.71c-15.359 0-27.855-12.496-27.855-27.855s12.496-27.855 27.855-27.855 27.855 12.496 27.855 27.855-12.495 27.855-27.855 27.855z"/></g></g></svg>